<svg xmlns="http://www.w3.org/2000/svg" width="32" height="32" viewBox="0 0 32 32" fill="none">
  <!-- 背景圆 -->
  <circle cx="16" cy="16" r="15" fill="#f5c036"/>
  <!-- 脸部高光 -->
  <ellipse cx="16" cy="18" rx="9" ry="8" fill="#fde68a" opacity=".5"/>
  <!-- 发冠 -->
  <ellipse cx="16" cy="5" rx="3" ry="4.5" fill="#f5c036" transform="rotate(-5 16 5)"/>
  <ellipse cx="19" cy="6" rx="2.5" ry="3.5" fill="#f0b830" transform="rotate(10 19 6)"/>
  <ellipse cx="13" cy="6" rx="2.5" ry="3.5" fill="#f0b830" transform="rotate(-10 13 6)"/>
  <!-- 左眼 -->
  <ellipse cx="11.5" cy="15" rx="3" ry="3.2" fill="white"/>
  <circle cx="12" cy="15.2" r="2.2" fill="#2a2218"/>
  <circle cx="11" cy="14.2" r="0.9" fill="white"/>
  <circle cx="12" cy="15.3" r="1" fill="#0f0d0a"/>
  <!-- 右眼 -->
  <ellipse cx="20.5" cy="15" rx="3" ry="3.2" fill="white"/>
  <circle cx="20" cy="15.2" r="2.2" fill="#2a2218"/>
  <circle cx="19" cy="14.2" r="0.9" fill="white"/>
  <circle cx="20" cy="15.3" r="1" fill="#0f0d0a"/>
  <!-- 腮红 -->
  <ellipse cx="8.5" cy="18" rx="2.2" ry="1.4" fill="#e07040" opacity=".28"/>
  <ellipse cx="23.5" cy="18" rx="2.2" ry="1.4" fill="#e07040" opacity=".28"/>
  <!-- 嘴巴 -->
  <path d="M14 19.5 Q16 22 18 19.5 Q16 18.5 14 19.5Z" fill="#e07040"/>
  <!-- 翅膀 -->
  <ellipse cx="5.5" cy="20" rx="4.5" ry="3" fill="#e8a820" transform="rotate(-20 5.5 20)"/>
  <ellipse cx="26.5" cy="20" rx="4.5" ry="3" fill="#e8a820" transform="rotate(20 26.5 20)"/>
  <!-- 身体下部 -->
  <ellipse cx="16" cy="24" rx="7" ry="5" fill="#f5c036"/>
  <!-- 脚 -->
  <line x1="13" y1="29" x2="11.5" y2="31" stroke="#e07040" stroke-width="1.8" stroke-linecap="round"/>
  <line x1="19" y1="29" x2="20.5" y2="31" stroke="#e07040" stroke-width="1.8" stroke-linecap="round"/>
  <path d="M11.5 31 L10 31.5 M11.5 31 L11.5 32.5 M11.5 31 L13 31.5" stroke="#e07040" stroke-width="1.2" stroke-linecap="round"/>
  <path d="M20.5 31 L19 31.5 M20.5 31 L20.5 32.5 M20.5 31 L22 31.5" stroke="#e07040" stroke-width="1.2" stroke-linecap="round"/>
</svg>
